<svg xmlns="http://www.w3.org/2000/svg" width="431" height="154" fill="none" viewBox="0 0 431 154"><path fill="#B68969" d="M2.016 34.8H30.72C39.616 34.8 46.272 36.016 50.688 38.448C55.168 40.816 57.408 44.848 57.408 50.544C57.408 59.312 52.128 64.56 41.568 66.288V66.48C54.368 68.08 60.768 73.648 60.768 83.184C60.768 90.16 58.144 95.056 52.896 97.872C47.648 100.624 40.096 102 30.24 102H2.016V100.176H8.256V36.624H2.016V34.8ZM26.976 68.016V100.176H31.488C35.008 100.176 37.472 98.96 38.88 96.528C40.288 94.096 40.992 90.512 40.992 85.776V80.688C40.992 76.464 40.128 73.296 38.4 71.184C36.672 69.072 33.6 68.016 29.184 68.016H26.976ZM26.976 36.624V66.192H29.472C32.8 66.192 35.104 65.2 36.384 63.216C37.728 61.168 38.4 58.064 38.4 53.904V49.392C38.4 44.656 37.824 41.36 36.672 39.504C35.52 37.584 33.312 36.624 30.048 36.624H26.976ZM96.3053 58.992C93.9373 58.992 91.8573 60.528 90.0653 63.6C88.2733 66.672 87.3773 70.32 87.3773 74.544V100.272H94.1933V102H64.2413V100.272H69.5213V58.032H64.2413V56.304H87.3773V65.52C88.2093 62.256 89.8093 59.76 92.1773 58.032C94.5453 56.24 97.2333 55.344 100.241 55.344C103.249 55.344 105.681 56.208 107.537 57.936C109.457 59.6 110.417 62 110.417 65.136C110.417 68.208 109.713 70.576 108.305 72.24C106.897 73.904 104.721 74.736 101.777 74.736C98.8973 74.736 96.7533 73.776 95.3453 71.856C94.0013 69.936 93.8413 67.28 94.8653 63.888H98.3213C99.9213 60.624 99.2493 58.992 96.3053 58.992ZM136.552 102.96C128.296 102.96 122.088 100.848 117.928 96.624C113.832 92.336 111.784 86.416 111.784 78.864C111.784 71.248 114.088 65.424 118.696 61.392C123.368 57.36 129.288 55.344 136.456 55.344C150.984 55.344 157.96 62.64 157.384 77.232H130.312V80.976C130.312 87.248 131.112 91.984 132.712 95.184C134.312 98.384 137.096 99.984 141.064 99.984C148.488 99.984 153.352 96.016 155.656 88.08L157.384 88.368C156.168 92.976 153.96 96.56 150.76 99.12C147.624 101.68 142.888 102.96 136.552 102.96ZM130.408 75.312H140.296V70.608C140.296 65.424 139.976 61.904 139.336 60.048C138.76 58.128 137.544 57.168 135.688 57.168C133.896 57.168 132.552 58.192 131.656 60.24C130.824 62.224 130.408 65.68 130.408 70.608V75.312ZM190.73 58.032V56.304H215.498V58.032H211.562L220.202 90.384L228.746 58.032H222.122V56.304H235.082V58.032H231.05L219.53 102H206.378L198.026 72.528L189.002 102H176.138L161.93 58.032H157.61V56.304H186.698V58.032H180.938L189.77 90.672L196.682 68.208L194.282 58.032H190.73ZM242.76 88.272V58.032H237.48V56.304H242.76V43.92L260.616 39.504V56.304H273.096V58.032H260.616V90.384C260.616 93.392 260.904 95.6 261.48 97.008C262.12 98.416 263.4 99.12 265.32 99.12C267.24 99.12 268.904 98.16 270.312 96.24C271.784 94.32 272.744 91.696 273.192 88.368L274.824 88.56C274.312 92.976 272.904 96.496 270.6 99.12C268.296 101.68 264.488 102.96 259.176 102.96C253.864 102.96 249.8 101.904 246.984 99.792C244.168 97.68 242.76 93.84 242.76 88.272ZM289.853 49.68C286.461 49.68 284.029 48.816 282.557 47.088C281.149 45.36 280.445 43.216 280.445 40.656C280.445 38.096 281.213 35.984 282.749 34.32C284.349 32.656 286.749 31.824 289.949 31.824C293.149 31.824 295.581 32.592 297.245 34.128C298.909 35.6 299.741 37.744 299.741 40.56C299.741 43.312 298.941 45.52 297.341 47.184C295.741 48.848 293.245 49.68 289.853 49.68ZM275.357 56.304H298.877V100.272H304.253V102H275.741V100.272H281.021V58.032H275.357V56.304ZM335.298 29.424C332.866 29.424 331.266 30.352 330.498 32.208C329.73 34 329.346 36.912 329.346 40.944V56.304H342.018V58.032H329.346V100.272H341.058V102H306.21V100.272H311.49V58.032H305.922V56.304H311.49V55.92C311.49 46.704 313.25 39.728 316.77 34.992C320.29 30.192 326.178 27.792 334.434 27.792C339.874 27.792 343.778 28.88 346.146 31.056C348.514 33.168 349.698 35.632 349.698 38.448C349.698 41.264 348.962 43.376 347.49 44.784C346.018 46.192 344.066 46.896 341.634 46.896C339.202 46.896 337.314 46.288 335.97 45.072C334.69 43.792 334.05 42.352 334.05 40.752C334.05 39.088 334.242 37.488 334.626 35.952H338.274C339.554 31.6 338.562 29.424 335.298 29.424ZM399.12 102H377.232L376.176 94.992C375.152 97.552 373.616 99.536 371.568 100.944C369.584 102.288 366.608 102.96 362.64 102.96C352.72 102.96 347.76 97.616 347.76 86.928V58.032H342.384V56.304H365.616V89.232C365.616 93.072 365.872 95.6 366.384 96.816C366.96 98.032 368.048 98.64 369.648 98.64C371.312 98.64 372.784 97.648 374.064 95.664C375.344 93.68 375.984 90.928 375.984 87.408V58.032H371.568V56.304H393.84V100.272H399.12V102ZM400.701 30H424.221V100.272H429.597V102H401.085V100.272H406.365V31.728H400.701V30Z"/><path fill="#B68969" d="M139.988 126.254L139.077 125.842L139.076 125.845L139.988 126.254ZM143.25 121.723L143.921 122.464L143.925 122.461L143.25 121.723ZM162.508 119.75L163.49 119.94L163.635 119.189L162.949 118.852L162.508 119.75ZM161.297 126L160.818 126.878L162.019 127.533L162.279 126.19L161.297 126ZM151.766 124.691L152.142 125.618L152.153 125.613L151.766 124.691ZM148.035 128.852L147.088 128.532L147.084 128.543L148.035 128.852ZM148.035 135.648L147.084 135.957L147.088 135.968L148.035 135.648ZM151.766 139.828L151.378 140.75L151.39 140.755L151.766 139.828ZM161.297 138.5L162.279 138.31L162.019 136.967L160.818 137.622L161.297 138.5ZM162.508 144.75L162.942 145.651L163.636 145.316L163.49 144.56L162.508 144.75ZM158.113 146.176L157.947 145.19L157.939 145.191L158.113 146.176ZM148.016 145.59L147.671 146.529L147.677 146.531L148.016 145.59ZM143.25 142.758L142.579 143.499L142.583 143.503L143.25 142.758ZM139.988 138.246L139.076 138.655L139.078 138.661L139.988 138.246ZM139.797 132.25C139.797 130.144 140.172 128.288 140.901 126.663L139.076 125.845C138.216 127.762 137.797 129.903 137.797 132.25H139.797ZM140.899 126.666C141.654 125 142.662 123.603 143.921 122.464L142.579 120.981C141.104 122.316 139.938 123.941 139.077 125.842L140.899 126.666ZM143.925 122.461C145.192 121.302 146.667 120.411 148.36 119.79L147.671 117.913C145.744 118.62 144.042 119.643 142.575 120.985L143.925 122.461ZM148.36 119.79C150.054 119.169 151.857 118.855 153.777 118.855V116.855C151.635 116.855 149.597 117.206 147.671 117.913L148.36 119.79ZM153.777 118.855C155.132 118.855 156.516 118.986 157.931 119.249L158.296 117.282C156.768 116.998 155.261 116.855 153.777 116.855V118.855ZM157.931 119.249C159.305 119.504 160.683 119.968 162.067 120.648L162.949 118.852C161.415 118.1 159.864 117.574 158.296 117.282L157.931 119.249ZM161.526 119.56L160.315 125.81L162.279 126.19L163.49 119.94L161.526 119.56ZM161.776 125.122C160.571 124.465 159.368 123.966 158.167 123.631L157.63 125.557C158.668 125.847 159.731 126.285 160.818 126.878L161.776 125.122ZM158.167 123.631C156.98 123.299 155.86 123.125 154.812 123.125V125.125C155.64 125.125 156.577 125.263 157.63 125.557L158.167 123.631ZM154.812 123.125C153.568 123.125 152.418 123.333 151.378 123.77L152.153 125.613C152.911 125.295 153.791 125.125 154.812 125.125V123.125ZM151.39 123.765C150.353 124.185 149.463 124.807 148.733 125.629L150.228 126.957C150.748 126.373 151.381 125.927 152.142 125.618L151.39 123.765ZM148.733 125.629C148.008 126.444 147.464 127.418 147.088 128.532L148.983 129.171C149.284 128.28 149.702 127.548 150.228 126.957L148.733 125.629ZM147.084 128.543C146.72 129.663 146.547 130.902 146.547 132.25H148.547C148.547 131.072 148.699 130.046 148.986 129.16L147.084 128.543ZM146.547 132.25C146.547 133.598 146.72 134.837 147.084 135.957L148.986 135.34C148.699 134.454 148.547 133.428 148.547 132.25H146.547ZM147.088 135.968C147.464 137.082 148.008 138.056 148.733 138.871L150.228 137.543C149.702 136.952 149.284 136.22 148.983 135.329L147.088 135.968ZM148.733 138.871C149.461 139.69 150.347 140.317 151.378 140.75L152.153 138.906C151.387 138.584 150.75 138.13 150.228 137.543L148.733 138.871ZM151.39 140.755C152.426 141.175 153.572 141.375 154.812 141.375V139.375C153.787 139.375 152.902 139.21 152.142 138.902L151.39 140.755ZM154.812 141.375C155.86 141.375 156.98 141.201 158.167 140.869L157.63 138.943C156.577 139.237 155.64 139.375 154.812 139.375V141.375ZM158.167 140.869C159.368 140.534 160.571 140.035 161.776 139.378L160.818 137.622C159.731 138.215 158.668 138.653 157.63 138.943L158.167 140.869ZM160.315 138.69L161.526 144.94L163.49 144.56L162.279 138.31L160.315 138.69ZM162.074 143.849C160.693 144.515 159.318 144.959 157.947 145.19L158.279 147.162C159.851 146.898 161.406 146.391 162.942 145.651L162.074 143.849ZM157.939 145.191C156.522 145.442 155.135 145.566 153.777 145.566V147.566C155.258 147.566 156.762 147.431 158.288 147.16L157.939 145.191ZM153.777 145.566C151.855 145.566 150.049 145.259 148.354 144.649L147.677 146.531C149.602 147.223 151.637 147.566 153.777 147.566V145.566ZM148.36 144.651C146.663 144.028 145.185 143.148 143.917 142.013L142.583 143.503C144.049 144.815 145.749 145.823 147.671 146.529L148.36 144.651ZM143.921 142.016C142.66 140.876 141.652 139.485 140.898 137.831L139.078 138.661C139.939 140.549 141.105 142.166 142.579 143.499L143.921 142.016ZM140.901 137.837C140.172 136.212 139.797 134.356 139.797 132.25H137.797C137.797 134.597 138.216 136.738 139.076 138.655L140.901 137.837ZM175.848 146L176.119 145.037L176.11 145.035L175.848 146ZM172.293 144.477L171.746 145.314L171.752 145.318L171.758 145.322L172.293 144.477ZM169.695 142.133L168.904 142.744L168.908 142.75L168.913 142.756L169.695 142.133ZM167.957 139.184L167.033 139.567L167.036 139.573L167.039 139.58L167.957 139.184ZM166.98 135.824L165.994 135.989L165.996 135.999L166.98 135.824ZM167.059 128.695L168.037 128.902L168.037 128.9L167.059 128.695ZM168.172 125.316L169.079 125.737L168.172 125.316ZM170.047 122.348L169.277 121.71L170.047 122.348ZM176.141 118.422L175.86 117.462L175.857 117.463L176.141 118.422ZM184.676 118.422L184.392 119.381L184.395 119.382L184.676 118.422ZM188.133 119.984L187.586 120.821L187.59 120.825L188.133 119.984ZM192.684 125.316L191.776 125.737L191.781 125.746L192.684 125.316ZM193.816 128.695L192.838 128.9L192.838 128.902L193.816 128.695ZM192.879 139.184L191.959 138.791L191.957 138.797L192.879 139.184ZM191.141 142.133L191.923 142.756L191.927 142.751L191.141 142.133ZM188.543 144.477L189.083 145.318L189.09 145.314L188.543 144.477ZM184.988 146L184.728 145.034L184.717 145.037L184.988 146ZM175.77 136.254L174.789 136.45L174.791 136.461L175.77 136.254ZM176.746 138.969L175.886 139.479L175.893 139.49L176.746 138.969ZM178.309 140.512L177.839 141.395L177.847 141.399L178.309 140.512ZM182.508 140.512L182.046 139.625L182.038 139.629L182.508 140.512ZM184.09 138.969L183.244 138.436L183.237 138.447L184.09 138.969ZM185.086 136.254L184.108 136.047L184.105 136.058L185.086 136.254ZM185.086 128.246L184.105 128.44L184.108 128.453L185.086 128.246ZM184.09 125.512L183.232 126.026L183.238 126.035L183.244 126.045L184.09 125.512ZM182.508 123.93L182.024 124.805L182.032 124.809L182.508 123.93ZM178.309 123.93L177.832 123.05L177.825 123.055L178.309 123.93ZM176.746 125.512L175.889 124.997L175.886 125.002L176.746 125.512ZM175.77 128.246L174.791 128.041L174.789 128.05L175.77 128.246ZM180.418 145.566C178.784 145.566 177.354 145.385 176.119 145.037L175.577 146.963C177.023 147.37 178.64 147.566 180.418 147.566V145.566ZM176.11 145.035C174.852 144.693 173.761 144.222 172.828 143.632L171.758 145.322C172.882 146.033 174.161 146.578 175.585 146.965L176.11 145.035ZM172.84 143.64C171.909 143.031 171.123 142.32 170.477 141.51L168.913 142.756C169.699 143.742 170.646 144.594 171.746 145.314L172.84 143.64ZM170.487 141.522C169.835 140.676 169.298 139.765 168.875 138.787L167.039 139.58C167.528 140.711 168.15 141.766 168.904 142.744L170.487 141.522ZM168.881 138.801C168.467 137.802 168.161 136.752 167.965 135.649L165.996 135.999C166.217 137.24 166.562 138.43 167.033 139.567L168.881 138.801ZM167.967 135.66C167.781 134.543 167.688 133.407 167.688 132.25H165.688C165.688 133.515 165.79 134.761 165.994 135.989L167.967 135.66ZM167.688 132.25C167.688 131.121 167.804 130.006 168.037 128.902L166.08 128.489C165.818 129.729 165.688 130.983 165.688 132.25H167.688ZM168.037 128.9C168.27 127.787 168.617 126.734 169.079 125.737L167.265 124.896C166.737 126.035 166.342 127.234 166.08 128.491L168.037 128.9ZM169.079 125.737C169.538 124.748 170.116 123.831 170.817 122.986L169.277 121.71C168.467 122.687 167.796 123.75 167.265 124.896L169.079 125.737ZM170.817 122.986C171.507 122.153 172.316 121.432 173.25 120.821L172.156 119.147C171.059 119.865 170.098 120.719 169.277 121.71L170.817 122.986ZM173.25 120.821C174.177 120.215 175.233 119.733 176.424 119.381L175.857 117.463C174.496 117.866 173.26 118.425 172.156 119.147L173.25 120.821ZM176.422 119.382C177.606 119.035 178.935 118.855 180.418 118.855V116.855C178.775 116.855 177.253 117.054 175.86 117.462L176.422 119.382ZM180.418 118.855C181.901 118.855 183.222 119.035 184.392 119.381L184.96 117.463C183.577 117.054 182.06 116.855 180.418 116.855V118.855ZM184.395 119.382C185.599 119.734 186.66 120.216 187.586 120.821L188.68 119.147C187.574 118.424 186.33 117.864 184.957 117.462L184.395 119.382ZM187.59 120.825C188.536 121.435 189.351 122.155 190.039 122.986L191.579 121.71C190.756 120.717 189.787 119.862 188.675 119.144L187.59 120.825ZM190.039 122.986C190.739 123.831 191.318 124.748 191.776 125.737L193.591 124.896C193.06 123.75 192.388 122.687 191.579 121.71L190.039 122.986ZM191.781 125.746C192.253 126.74 192.606 127.791 192.838 128.9L194.795 128.491C194.532 127.23 194.129 126.028 193.587 124.887L191.781 125.746ZM192.838 128.902C193.071 130.006 193.188 131.121 193.188 132.25H195.188C195.188 130.983 195.057 129.729 194.795 128.489L192.838 128.902ZM193.188 132.25C193.188 133.403 193.088 134.536 192.89 135.649L194.86 135.999C195.078 134.769 195.188 133.519 195.188 132.25H193.188ZM192.89 135.649C192.695 136.748 192.384 137.795 191.959 138.791L193.799 139.576C194.285 138.437 194.638 137.244 194.86 135.999L192.89 135.649ZM191.957 138.797C191.549 139.767 191.016 140.673 190.354 141.515L191.927 142.751C192.698 141.77 193.323 140.709 193.801 139.571L191.957 138.797ZM190.359 141.51C189.713 142.32 188.927 143.031 187.996 143.64L189.09 145.314C190.19 144.594 191.136 143.742 191.923 142.756L190.359 141.51ZM188.003 143.635C187.087 144.222 185.999 144.692 184.728 145.034L185.248 146.966C186.686 146.579 187.968 146.033 189.083 145.318L188.003 143.635ZM184.717 145.037C183.481 145.385 182.052 145.566 180.418 145.566V147.566C182.196 147.566 183.813 147.37 185.259 146.963L184.717 145.037ZM174.438 132.25C174.438 133.855 174.551 135.259 174.789 136.45L176.75 136.058C176.546 135.035 176.438 133.77 176.438 132.25H174.438ZM174.791 136.461C175.04 137.637 175.397 138.653 175.886 139.479L177.606 138.459C177.262 137.878 176.968 137.085 176.748 136.047L174.791 136.461ZM175.893 139.49C176.398 140.317 177.042 140.97 177.839 141.395L178.778 139.629C178.352 139.402 177.954 139.027 177.599 138.447L175.893 139.49ZM177.847 141.399C178.629 141.806 179.494 142 180.418 142V140C179.78 140 179.238 139.868 178.771 139.625L177.847 141.399ZM180.418 142C181.342 142 182.203 141.806 182.977 141.395L182.038 139.629C181.588 139.868 181.057 140 180.418 140V142ZM182.97 141.399C183.782 140.976 184.435 140.322 184.943 139.49L183.237 138.447C182.885 139.022 182.484 139.397 182.046 139.625L182.97 141.399ZM184.936 139.502C185.462 138.666 185.829 137.636 186.067 136.45L184.105 136.058C183.9 137.085 183.603 137.866 183.244 138.436L184.936 139.502ZM186.064 136.461C186.317 135.266 186.438 133.858 186.438 132.25H184.438C184.438 133.767 184.323 135.028 184.108 136.047L186.064 136.461ZM186.438 132.25C186.438 130.642 186.317 129.234 186.064 128.039L184.108 128.453C184.323 129.472 184.438 130.733 184.438 132.25H186.438ZM186.067 128.052C185.83 126.854 185.464 125.817 184.936 124.979L183.244 126.045C183.602 126.613 183.899 127.399 184.105 128.44L186.067 128.052ZM184.947 124.997C184.442 124.155 183.792 123.488 182.984 123.05L182.032 124.809C182.473 125.048 182.879 125.436 183.232 126.026L184.947 124.997ZM182.992 123.055C182.215 122.625 181.348 122.422 180.418 122.422V124.422C181.05 124.422 181.577 124.557 182.024 124.805L182.992 123.055ZM180.418 122.422C179.487 122.422 178.618 122.625 177.832 123.05L178.785 124.809C179.249 124.557 179.786 124.422 180.418 124.422V122.422ZM177.825 123.055C177.031 123.494 176.391 124.16 175.889 124.997L177.604 126.026C177.96 125.432 178.362 125.043 178.793 124.805L177.825 123.055ZM175.886 125.002C175.396 125.829 175.039 126.854 174.791 128.041L176.748 128.451C176.968 127.399 177.263 126.601 177.606 126.022L175.886 125.002ZM174.789 128.05C174.551 129.241 174.438 130.645 174.438 132.25H176.438C176.438 130.73 176.546 129.465 176.75 128.442L174.789 128.05ZM199.363 118.383V117.383H198.363V118.383H199.363ZM218.27 118.383H219.27V117.383H218.27V118.383ZM218.27 123.5V124.5H219.27V123.5H218.27ZM208.113 123.5V122.5H207.113V123.5H208.113ZM208.113 129.398H207.113V130.398H208.113V129.398ZM217.02 129.398H218.02V128.398H217.02V129.398ZM217.02 135.023V136.023H218.02V135.023H217.02ZM208.113 135.023V134.023H207.113V135.023H208.113ZM208.113 146V147H209.113V146H208.113ZM199.363 146H198.363V147H199.363V146ZM199.363 119.383H218.27V117.383H199.363V119.383ZM217.27 118.383V123.5H219.27V118.383H217.27ZM218.27 122.5H208.113V124.5H218.27V122.5ZM207.113 123.5V129.398H209.113V123.5H207.113ZM208.113 130.398H217.02V128.398H208.113V130.398ZM216.02 129.398V135.023H218.02V129.398H216.02ZM217.02 134.023H208.113V136.023H217.02V134.023ZM207.113 135.023V146H209.113V135.023H207.113ZM208.113 145H199.363V147H208.113V145ZM200.363 146V118.383H198.363V146H200.363ZM222.801 118.383V117.383H221.801V118.383H222.801ZM241.707 118.383H242.707V117.383H241.707V118.383ZM241.707 123.5V124.5H242.707V123.5H241.707ZM231.551 123.5V122.5H230.551V123.5H231.551ZM231.551 129.398H230.551V130.398H231.551V129.398ZM240.457 129.398H241.457V128.398H240.457V129.398ZM240.457 135.023V136.023H241.457V135.023H240.457ZM231.551 135.023V134.023H230.551V135.023H231.551ZM231.551 146V147H232.551V146H231.551ZM222.801 146H221.801V147H222.801V146ZM222.801 119.383H241.707V117.383H222.801V119.383ZM240.707 118.383V123.5H242.707V118.383H240.707ZM241.707 122.5H231.551V124.5H241.707V122.5ZM230.551 123.5V129.398H232.551V123.5H230.551ZM231.551 130.398H240.457V128.398H231.551V130.398ZM239.457 129.398V135.023H241.457V129.398H239.457ZM240.457 134.023H231.551V136.023H240.457V134.023ZM230.551 135.023V146H232.551V135.023H230.551ZM231.551 145H222.801V147H231.551V145ZM223.801 146V118.383H221.801V146H223.801ZM246.238 118.383V117.383H245.238V118.383H246.238ZM265.613 118.383H266.613V117.383H265.613V118.383ZM265.613 123.5V124.5H266.613V123.5H265.613ZM254.988 123.5V122.5H253.988V123.5H254.988ZM254.988 129.34H253.988V130.34H254.988V129.34ZM264.363 129.34H265.363V128.34H264.363V129.34ZM264.363 134.34V135.34H265.363V134.34H264.363ZM254.988 134.34V133.34H253.988V134.34H254.988ZM254.988 140.375H253.988V141.375H254.988V140.375ZM265.613 140.375H266.613V139.375H265.613V140.375ZM265.613 146V147H266.613V146H265.613ZM246.238 146H245.238V147H246.238V146ZM246.238 119.383H265.613V117.383H246.238V119.383ZM264.613 118.383V123.5H266.613V118.383H264.613ZM265.613 122.5H254.988V124.5H265.613V122.5ZM253.988 123.5V129.34H255.988V123.5H253.988ZM254.988 130.34H264.363V128.34H254.988V130.34ZM263.363 129.34V134.34H265.363V129.34H263.363ZM264.363 133.34H254.988V135.34H264.363V133.34ZM253.988 134.34V140.375H255.988V134.34H253.988ZM254.988 141.375H265.613V139.375H254.988V141.375ZM264.613 140.375V146H266.613V140.375H264.613ZM265.613 145H246.238V147H265.613V145ZM247.238 146V118.383H245.238V146H247.238ZM272.02 118.383V117.383H271.02V118.383H272.02ZM291.395 118.383H292.395V117.383H291.395V118.383ZM291.395 123.5V124.5H292.395V123.5H291.395ZM280.77 123.5V122.5H279.77V123.5H280.77ZM280.77 129.34H279.77V130.34H280.77V129.34ZM290.145 129.34H291.145V128.34H290.145V129.34ZM290.145 134.34V135.34H291.145V134.34H290.145ZM280.77 134.34V133.34H279.77V134.34H280.77ZM280.77 140.375H279.77V141.375H280.77V140.375ZM291.395 140.375H292.395V139.375H291.395V140.375ZM291.395 146V147H292.395V146H291.395ZM272.02 146H271.02V147H272.02V146ZM272.02 119.383H291.395V117.383H272.02V119.383ZM290.395 118.383V123.5H292.395V118.383H290.395ZM291.395 122.5H280.77V124.5H291.395V122.5ZM279.77 123.5V129.34H281.77V123.5H279.77ZM280.77 130.34H290.145V128.34H280.77V130.34ZM289.145 129.34V134.34H291.145V129.34H289.145ZM290.145 133.34H280.77V135.34H290.145V133.34ZM279.77 134.34V140.375H281.77V134.34H279.77ZM280.77 141.375H291.395V139.375H280.77V141.375ZM290.395 140.375V146H292.395V140.375H290.395ZM291.395 145H272.02V147H291.395V145ZM273.02 146V118.383H271.02V146H273.02Z"/></svg>