<svg xmlns="http://www.w3.org/2000/svg" width="436" height="128" fill="none" viewBox="0 0 436 128"><g filter="url(#filter0_d_0_1)"><path fill="#2B1D1E" d="M4.016 7.8H32.72C41.616 7.8 48.272 9.016 52.688 11.448C57.168 13.816 59.408 17.848 59.408 23.544C59.408 32.312 54.128 37.56 43.568 39.288V39.48C56.368 41.08 62.768 46.648 62.768 56.184C62.768 63.16 60.144 68.056 54.896 70.872C49.648 73.624 42.096 75 32.24 75H4.016V73.176H10.256V9.62399H4.016V7.8ZM28.976 41.016V73.176H33.488C37.008 73.176 39.472 71.96 40.88 69.528C42.288 67.096 42.992 63.512 42.992 58.776V53.688C42.992 49.464 42.128 46.296 40.4 44.184C38.672 42.072 35.6 41.016 31.184 41.016H28.976ZM28.976 9.62399V39.192H31.472C34.8 39.192 37.104 38.2 38.384 36.216C39.728 34.168 40.4 31.064 40.4 26.904V22.392C40.4 17.656 39.824 14.36 38.672 12.504C37.52 10.584 35.312 9.62399 32.048 9.62399H28.976ZM98.3053 31.992C95.9373 31.992 93.8573 33.528 92.0653 36.6C90.2733 39.672 89.3773 43.32 89.3773 47.544V73.272H96.1933V75H66.2413V73.272H71.5213V31.032H66.2413V29.304H89.3773V38.52C90.2093 35.256 91.8093 32.76 94.1773 31.032C96.5453 29.24 99.2333 28.344 102.241 28.344C105.249 28.344 107.681 29.208 109.537 30.936C111.457 32.6 112.417 35 112.417 38.136C112.417 41.208 111.713 43.576 110.305 45.24C108.897 46.904 106.721 47.736 103.777 47.736C100.897 47.736 98.7533 46.776 97.3453 44.856C96.0013 42.936 95.8413 40.28 96.8653 36.888H100.321C101.921 33.624 101.249 31.992 98.3053 31.992ZM138.552 75.96C130.296 75.96 124.088 73.848 119.928 69.624C115.832 65.336 113.784 59.416 113.784 51.864C113.784 44.248 116.088 38.424 120.696 34.392C125.368 30.36 131.288 28.344 138.456 28.344C152.984 28.344 159.96 35.64 159.384 50.232H132.312V53.976C132.312 60.248 133.112 64.984 134.712 68.184C136.312 71.384 139.096 72.984 143.064 72.984C150.488 72.984 155.352 69.016 157.656 61.08L159.384 61.368C158.168 65.976 155.96 69.56 152.76 72.12C149.624 74.68 144.888 75.96 138.552 75.96ZM132.408 48.312H142.296V43.608C142.296 38.424 141.976 34.904 141.336 33.048C140.76 31.128 139.544 30.168 137.688 30.168C135.896 30.168 134.552 31.192 133.656 33.24C132.824 35.224 132.408 38.68 132.408 43.608V48.312ZM192.73 31.032V29.304H217.498V31.032H213.562L222.202 63.384L230.746 31.032H224.122V29.304H237.082V31.032H233.05L221.53 75H208.378L200.026 45.528L191.002 75H178.138L163.93 31.032H159.61V29.304H188.698V31.032H182.938L191.77 63.672L198.682 41.208L196.282 31.032H192.73ZM244.76 61.272V31.032H239.48V29.304H244.76V16.92L262.616 12.504V29.304H275.096V31.032H262.616V63.384C262.616 66.392 262.904 68.6 263.48 70.008C264.12 71.416 265.4 72.12 267.32 72.12C269.24 72.12 270.904 71.16 272.312 69.24C273.784 67.32 274.744 64.696 275.192 61.368L276.824 61.56C276.312 65.976 274.904 69.496 272.6 72.12C270.296 74.68 266.488 75.96 261.176 75.96C255.864 75.96 251.8 74.904 248.984 72.792C246.168 70.68 244.76 66.84 244.76 61.272ZM291.853 22.68C288.461 22.68 286.029 21.816 284.557 20.088C283.149 18.36 282.445 16.216 282.445 13.656C282.445 11.096 283.213 8.984 284.749 7.32C286.349 5.656 288.749 4.824 291.949 4.824C295.149 4.824 297.581 5.592 299.245 7.128C300.909 8.6 301.741 10.744 301.741 13.56C301.741 16.312 300.941 18.52 299.341 20.184C297.741 21.848 295.245 22.68 291.853 22.68ZM277.357 29.304H300.877V73.272H306.253V75H277.741V73.272H283.021V31.032H277.357V29.304ZM337.298 2.424C334.866 2.424 333.266 3.352 332.498 5.20799C331.73 6.99999 331.346 9.91199 331.346 13.944V29.304H344.018V31.032H331.346V73.272H343.058V75H308.21V73.272H313.49V31.032H307.922V29.304H313.49V28.92C313.49 19.704 315.25 12.728 318.77 7.992C322.29 3.192 328.178 0.791994 336.434 0.791994C341.874 0.791994 345.778 1.88 348.146 4.056C350.514 6.168 351.698 8.632 351.698 11.448C351.698 14.264 350.962 16.376 349.49 17.784C348.018 19.192 346.066 19.896 343.634 19.896C341.202 19.896 339.314 19.288 337.97 18.072C336.69 16.792 336.05 15.352 336.05 13.752C336.05 12.088 336.242 10.488 336.626 8.952H340.274C341.554 4.6 340.562 2.424 337.298 2.424ZM401.12 75H379.232L378.176 67.992C377.152 70.552 375.616 72.536 373.568 73.944C371.584 75.288 368.608 75.96 364.64 75.96C354.72 75.96 349.76 70.616 349.76 59.928V31.032H344.384V29.304H367.616V62.232C367.616 66.072 367.872 68.6 368.384 69.816C368.96 71.032 370.048 71.64 371.648 71.64C373.312 71.64 374.784 70.648 376.064 68.664C377.344 66.68 377.984 63.928 377.984 60.408V31.032H373.568V29.304H395.84V73.272H401.12V75ZM402.701 2.99999H426.221V73.272H431.597V75H403.085V73.272H408.365V4.72799H402.701V2.99999Z"/></g><g filter="url(#filter1_d_0_1)"><path fill="#2B1D1E" d="M141.988 99.2539L141.077 98.8416L141.076 98.8447L141.988 99.2539ZM145.25 94.7227L145.921 95.4642L145.925 95.4607L145.25 94.7227ZM164.508 92.75L165.49 92.9402L165.635 92.1895L164.949 91.8524L164.508 92.75ZM163.297 99L162.818 99.8779L164.019 100.533L164.279 99.1902L163.297 99ZM153.766 97.6914L154.142 98.6181L154.153 98.6133L153.766 97.6914ZM150.035 101.852L149.088 101.532L149.084 101.543L150.035 101.852ZM150.035 108.648L149.084 108.957L149.088 108.968L150.035 108.648ZM153.766 112.828L153.378 113.75L153.39 113.755L153.766 112.828ZM163.297 111.5L164.279 111.31L164.019 109.967L162.818 110.622L163.297 111.5ZM164.508 117.75L164.942 118.651L165.636 118.316L165.49 117.56L164.508 117.75ZM160.113 119.176L159.947 118.19L159.939 118.191L160.113 119.176ZM150.016 118.59L149.671 119.529L149.677 119.531L150.016 118.59ZM145.25 115.758L144.579 116.499L144.583 116.503L145.25 115.758ZM141.988 111.246L141.076 111.655L141.078 111.661L141.988 111.246ZM141.797 105.25C141.797 103.144 142.172 101.288 142.901 99.6632L141.076 98.8447C140.216 100.762 139.797 102.903 139.797 105.25H141.797ZM142.899 99.6662C143.654 97.9995 144.662 96.6034 145.921 95.4642L144.579 93.9811C143.104 95.3158 141.938 96.9406 141.077 98.8416L142.899 99.6662ZM145.925 95.4607C147.192 94.302 148.667 93.4115 150.36 92.7904L149.671 90.9128C147.744 91.6198 146.042 92.6433 144.575 93.9846L145.925 95.4607ZM150.36 92.7904C152.054 92.1689 153.857 91.8555 155.777 91.8555V89.8555C153.635 89.8555 151.597 90.2061 149.671 90.9128L150.36 92.7904ZM155.777 91.8555C157.132 91.8555 158.516 91.9859 159.931 92.2488L160.296 90.2825C158.768 89.9984 157.261 89.8555 155.777 89.8555V91.8555ZM159.931 92.2488C161.305 92.5042 162.683 92.9682 164.067 93.6476L164.949 91.8524C163.415 91.0995 161.864 90.5739 160.296 90.2825L159.931 92.2488ZM163.526 92.5598L162.315 98.8098L164.279 99.1902L165.49 92.9402L163.526 92.5598ZM163.776 98.1221C162.571 97.4652 161.368 96.9657 160.167 96.6306L159.63 98.5569C160.668 98.8468 161.731 99.2848 162.818 99.8779L163.776 98.1221ZM160.167 96.6306C158.98 96.2992 157.86 96.125 156.812 96.125V98.125C157.64 98.125 158.577 98.2633 159.63 98.5569L160.167 96.6306ZM156.812 96.125C155.568 96.125 154.418 96.3327 153.378 96.7695L154.153 98.6133C154.911 98.2949 155.791 98.125 156.812 98.125V96.125ZM153.39 96.7648C152.353 97.1853 151.463 97.8071 150.733 98.6286L152.228 99.9573C152.748 99.3726 153.381 98.9267 154.142 98.618L153.39 96.7648ZM150.733 98.6286C150.008 99.4438 149.464 100.418 149.088 101.532L150.983 102.171C151.284 101.28 151.702 100.548 152.228 99.9573L150.733 98.6286ZM149.084 101.543C148.72 102.663 148.547 103.902 148.547 105.25H150.547C150.547 104.072 150.699 103.046 150.986 102.16L149.084 101.543ZM148.547 105.25C148.547 106.598 148.72 107.837 149.084 108.957L150.986 108.34C150.699 107.454 150.547 106.428 150.547 105.25H148.547ZM149.088 108.968C149.464 110.082 150.008 111.056 150.733 111.871L152.228 110.543C151.702 109.952 151.284 109.22 150.983 108.329L149.088 108.968ZM150.733 111.871C151.461 112.69 152.347 113.317 153.378 113.75L154.153 111.906C153.387 111.584 152.75 111.13 152.228 110.543L150.733 111.871ZM153.39 113.755C154.426 114.175 155.572 114.375 156.812 114.375V112.375C155.787 112.375 154.902 112.21 154.142 111.902L153.39 113.755ZM156.812 114.375C157.86 114.375 158.98 114.201 160.167 113.869L159.63 111.943C158.577 112.237 157.64 112.375 156.812 112.375V114.375ZM160.167 113.869C161.368 113.534 162.571 113.035 163.776 112.378L162.818 110.622C161.731 111.215 160.668 111.653 159.63 111.943L160.167 113.869ZM162.315 111.69L163.526 117.94L165.49 117.56L164.279 111.31L162.315 111.69ZM164.074 116.849C162.693 117.515 161.318 117.959 159.947 118.19L160.279 120.162C161.851 119.898 163.406 119.391 164.942 118.651L164.074 116.849ZM159.939 118.191C158.522 118.442 157.135 118.566 155.777 118.566V120.566C157.258 120.566 158.762 120.431 160.288 120.16L159.939 118.191ZM155.777 118.566C153.855 118.566 152.049 118.259 150.354 117.649L149.677 119.531C151.602 120.223 153.637 120.566 155.777 120.566V118.566ZM150.36 117.651C148.663 117.028 147.185 116.148 145.917 115.013L144.583 116.503C146.049 117.815 147.749 118.823 149.671 119.529L150.36 117.651ZM145.921 115.016C144.66 113.876 143.652 112.485 142.898 110.831L141.078 111.661C141.939 113.549 143.105 115.166 144.579 116.499L145.921 115.016ZM142.901 110.837C142.172 109.212 141.797 107.356 141.797 105.25H139.797C139.797 107.597 140.216 109.738 141.076 111.655L142.901 110.837ZM177.848 119L178.119 118.037L178.11 118.035L177.848 119ZM174.293 117.477L173.746 118.314L173.752 118.318L173.758 118.322L174.293 117.477ZM171.695 115.133L170.904 115.744L170.908 115.75L170.913 115.756L171.695 115.133ZM169.957 112.184L169.033 112.567L169.036 112.573L169.039 112.58L169.957 112.184ZM168.98 108.824L167.994 108.989L167.996 108.999L168.98 108.824ZM169.059 101.695L170.037 101.902L170.037 101.9L169.059 101.695ZM170.172 98.3164L171.079 98.7369L170.172 98.3164ZM172.047 95.3477L171.277 94.7096L172.047 95.3477ZM178.141 91.4219L177.86 90.4622L177.857 90.463L178.141 91.4219ZM186.676 91.4219L186.392 92.3808L186.395 92.3815L186.676 91.4219ZM190.133 92.9844L189.586 93.8214L189.59 93.8245L190.133 92.9844ZM194.684 98.3164L193.776 98.7369L193.781 98.7459L194.684 98.3164ZM195.816 101.695L194.838 101.9L194.838 101.902L195.816 101.695ZM194.879 112.184L193.959 111.791L193.957 111.797L194.879 112.184ZM193.141 115.133L193.923 115.756L193.927 115.751L193.141 115.133ZM190.543 117.477L191.083 118.318L191.09 118.314L190.543 117.477ZM186.988 119L186.728 118.034L186.717 118.037L186.988 119ZM177.77 109.254L176.789 109.45L176.791 109.461L177.77 109.254ZM178.746 111.969L177.886 112.479L177.893 112.49L178.746 111.969ZM180.309 113.512L179.839 114.395L179.847 114.399L180.309 113.512ZM184.508 113.512L184.046 112.625L184.038 112.629L184.508 113.512ZM186.09 111.969L185.244 111.436L185.237 111.447L186.09 111.969ZM187.086 109.254L186.108 109.047L186.105 109.058L187.086 109.254ZM187.086 101.246L186.105 101.44L186.108 101.453L187.086 101.246ZM186.09 98.5117L185.232 99.0262L185.238 99.0354L185.244 99.0445L186.09 98.5117ZM184.508 96.9297L184.024 97.8048L184.032 97.809L184.508 96.9297ZM180.309 96.9297L179.832 96.0504L179.825 96.0547L180.309 96.9297ZM178.746 98.5117L177.889 97.9972L177.886 98.0019L178.746 98.5117ZM177.77 101.246L176.791 101.041L176.789 101.05L177.77 101.246ZM182.418 118.566C180.784 118.566 179.354 118.385 178.119 118.037L177.577 119.963C179.023 120.37 180.64 120.566 182.418 120.566V118.566ZM178.11 118.035C176.852 117.693 175.761 117.222 174.828 116.632L173.758 118.322C174.882 119.033 176.161 119.578 177.585 119.965L178.11 118.035ZM174.84 116.64C173.909 116.031 173.123 115.32 172.477 114.51L170.913 115.756C171.699 116.742 172.646 117.594 173.746 118.314L174.84 116.64ZM172.487 114.522C171.835 113.676 171.298 112.765 170.875 111.787L169.039 112.58C169.528 113.711 170.15 114.766 170.904 115.744L172.487 114.522ZM170.881 111.801C170.467 110.802 170.161 109.752 169.965 108.649L167.996 108.999C168.217 110.24 168.562 111.43 169.033 112.567L170.881 111.801ZM169.967 108.66C169.781 107.543 169.688 106.407 169.688 105.25H167.688C167.688 106.515 167.79 107.761 167.994 108.989L169.967 108.66ZM169.688 105.25C169.688 104.121 169.804 103.006 170.037 101.902L168.08 101.489C167.818 102.729 167.688 103.983 167.688 105.25H169.688ZM170.037 101.9C170.27 100.787 170.617 99.7336 171.079 98.7369L169.265 97.8959C168.737 99.0347 168.342 100.234 168.08 101.491L170.037 101.9ZM171.079 98.7369C171.538 97.7477 172.116 96.8312 172.817 95.9857L171.277 94.7096C170.467 95.687 169.796 96.7496 169.265 97.8959L171.079 98.7369ZM172.817 95.9857C173.507 95.1532 174.316 94.432 175.25 93.8213L174.156 92.1474C173.059 92.8649 172.098 93.7191 171.277 94.7096L172.817 95.9857ZM175.25 93.8213C176.177 93.2154 177.233 92.7334 178.424 92.3808L177.857 90.463C176.496 90.8655 175.26 91.4252 174.156 92.1474L175.25 93.8213ZM178.422 92.3815C179.606 92.0346 180.935 91.8555 182.418 91.8555V89.8555C180.775 89.8555 179.253 90.0539 177.86 90.4622L178.422 92.3815ZM182.418 91.8555C183.901 91.8555 185.222 92.0347 186.392 92.3808L186.96 90.463C185.577 90.0539 184.06 89.8555 182.418 89.8555V91.8555ZM186.395 92.3815C187.599 92.7345 188.66 93.2164 189.586 93.8213L190.68 92.1474C189.574 91.4242 188.33 90.8645 186.957 90.4622L186.395 92.3815ZM189.59 93.8245C190.536 94.4351 191.351 95.1555 192.039 95.9857L193.579 94.7096C192.756 93.7169 191.787 92.8617 190.675 92.1442L189.59 93.8245ZM192.039 95.9857C192.739 96.8312 193.318 97.7477 193.776 98.7369L195.591 97.8959C195.06 96.7496 194.388 95.687 193.579 94.7096L192.039 95.9857ZM193.781 98.7459C194.253 99.7402 194.606 100.791 194.838 101.9L196.795 101.491C196.532 100.23 196.129 99.0281 195.587 97.8869L193.781 98.7459ZM194.838 101.902C195.071 103.006 195.188 104.121 195.188 105.25H197.188C197.188 103.983 197.057 102.729 196.795 101.489L194.838 101.902ZM195.188 105.25C195.188 106.403 195.088 107.536 194.89 108.649L196.86 108.999C197.078 107.769 197.188 106.519 197.188 105.25H195.188ZM194.89 108.649C194.695 109.748 194.384 110.795 193.959 111.791L195.799 112.576C196.285 111.437 196.638 110.244 196.86 108.999L194.89 108.649ZM193.957 111.797C193.549 112.767 193.016 113.673 192.354 114.515L193.927 115.751C194.698 114.77 195.323 113.709 195.801 112.571L193.957 111.797ZM192.359 114.51C191.713 115.32 190.927 116.031 189.996 116.64L191.09 118.314C192.19 117.594 193.136 116.742 193.923 115.756L192.359 114.51ZM190.003 116.635C189.087 117.222 187.999 117.692 186.728 118.034L187.248 119.966C188.686 119.579 189.968 119.033 191.083 118.318L190.003 116.635ZM186.717 118.037C185.481 118.385 184.052 118.566 182.418 118.566V120.566C184.196 120.566 185.813 120.37 187.259 119.963L186.717 118.037ZM176.438 105.25C176.438 106.855 176.551 108.259 176.789 109.45L178.75 109.058C178.546 108.035 178.438 106.77 178.438 105.25H176.438ZM176.791 109.461C177.04 110.637 177.397 111.653 177.886 112.479L179.606 111.459C179.262 110.878 178.968 110.085 178.748 109.047L176.791 109.461ZM177.893 112.49C178.398 113.317 179.042 113.97 179.839 114.395L180.778 112.629C180.352 112.402 179.954 112.027 179.599 111.447L177.893 112.49ZM179.847 114.399C180.629 114.806 181.494 115 182.418 115V113C181.78 113 181.238 112.868 180.771 112.625L179.847 114.399ZM182.418 115C183.342 115 184.203 114.806 184.977 114.395L184.038 112.629C183.588 112.868 183.057 113 182.418 113V115ZM184.97 114.399C185.782 113.976 186.435 113.322 186.943 112.49L185.237 111.447C184.885 112.022 184.484 112.397 184.046 112.625L184.97 114.399ZM186.936 112.502C187.462 111.666 187.829 110.636 188.067 109.45L186.105 109.058C185.9 110.085 185.603 110.866 185.244 111.436L186.936 112.502ZM188.064 109.461C188.317 108.266 188.438 106.858 188.438 105.25H186.438C186.438 106.767 186.323 108.028 186.108 109.047L188.064 109.461ZM188.438 105.25C188.438 103.642 188.317 102.234 188.064 101.039L186.108 101.453C186.323 102.472 186.438 103.733 186.438 105.25H188.438ZM188.067 101.052C187.83 99.854 187.464 98.8166 186.936 97.9789L185.244 99.0445C185.602 99.613 185.899 100.399 186.105 101.44L188.067 101.052ZM186.947 97.9972C186.442 97.1547 185.792 96.4881 184.984 96.0504L184.032 97.809C184.473 98.0483 184.879 98.4365 185.232 99.0262L186.947 97.9972ZM184.992 96.0547C184.215 95.6249 183.348 95.4219 182.418 95.4219V97.4219C183.05 97.4219 183.577 97.5574 184.024 97.8047L184.992 96.0547ZM182.418 95.4219C181.487 95.4219 180.618 95.625 179.832 96.0504L180.785 97.809C181.249 97.5573 181.786 97.4219 182.418 97.4219V95.4219ZM179.825 96.0547C179.031 96.4936 178.391 97.1595 177.889 97.9972L179.604 99.0262C179.96 98.4316 180.362 98.0429 180.793 97.8047L179.825 96.0547ZM177.886 98.0019C177.396 98.8289 177.039 99.8535 176.791 101.041L178.748 101.451C178.968 100.399 179.263 99.6008 179.606 99.0215L177.886 98.0019ZM176.789 101.05C176.551 102.241 176.438 103.645 176.438 105.25H178.438C178.438 103.73 178.546 102.465 178.75 101.442L176.789 101.05ZM201.363 91.3828V90.3828H200.363V91.3828H201.363ZM220.27 91.3828H221.27V90.3828H220.27V91.3828ZM220.27 96.5V97.5H221.27V96.5H220.27ZM210.113 96.5V95.5H209.113V96.5H210.113ZM210.113 102.398H209.113V103.398H210.113V102.398ZM219.02 102.398H220.02V101.398H219.02V102.398ZM219.02 108.023V109.023H220.02V108.023H219.02ZM210.113 108.023V107.023H209.113V108.023H210.113ZM210.113 119V120H211.113V119H210.113ZM201.363 119H200.363V120H201.363V119ZM201.363 92.3828H220.27V90.3828H201.363V92.3828ZM219.27 91.3828V96.5H221.27V91.3828H219.27ZM220.27 95.5H210.113V97.5H220.27V95.5ZM209.113 96.5V102.398H211.113V96.5H209.113ZM210.113 103.398H219.02V101.398H210.113V103.398ZM218.02 102.398V108.023H220.02V102.398H218.02ZM219.02 107.023H210.113V109.023H219.02V107.023ZM209.113 108.023V119H211.113V108.023H209.113ZM210.113 118H201.363V120H210.113V118ZM202.363 119V91.3828H200.363V119H202.363ZM224.801 91.3828V90.3828H223.801V91.3828H224.801ZM243.707 91.3828H244.707V90.3828H243.707V91.3828ZM243.707 96.5V97.5H244.707V96.5H243.707ZM233.551 96.5V95.5H232.551V96.5H233.551ZM233.551 102.398H232.551V103.398H233.551V102.398ZM242.457 102.398H243.457V101.398H242.457V102.398ZM242.457 108.023V109.023H243.457V108.023H242.457ZM233.551 108.023V107.023H232.551V108.023H233.551ZM233.551 119V120H234.551V119H233.551ZM224.801 119H223.801V120H224.801V119ZM224.801 92.3828H243.707V90.3828H224.801V92.3828ZM242.707 91.3828V96.5H244.707V91.3828H242.707ZM243.707 95.5H233.551V97.5H243.707V95.5ZM232.551 96.5V102.398H234.551V96.5H232.551ZM233.551 103.398H242.457V101.398H233.551V103.398ZM241.457 102.398V108.023H243.457V102.398H241.457ZM242.457 107.023H233.551V109.023H242.457V107.023ZM232.551 108.023V119H234.551V108.023H232.551ZM233.551 118H224.801V120H233.551V118ZM225.801 119V91.3828H223.801V119H225.801ZM248.238 91.3828V90.3828H247.238V91.3828H248.238ZM267.613 91.3828H268.613V90.3828H267.613V91.3828ZM267.613 96.5V97.5H268.613V96.5H267.613ZM256.988 96.5V95.5H255.988V96.5H256.988ZM256.988 102.34H255.988V103.34H256.988V102.34ZM266.363 102.34H267.363V101.34H266.363V102.34ZM266.363 107.34V108.34H267.363V107.34H266.363ZM256.988 107.34V106.34H255.988V107.34H256.988ZM256.988 113.375H255.988V114.375H256.988V113.375ZM267.613 113.375H268.613V112.375H267.613V113.375ZM267.613 119V120H268.613V119H267.613ZM248.238 119H247.238V120H248.238V119ZM248.238 92.3828H267.613V90.3828H248.238V92.3828ZM266.613 91.3828V96.5H268.613V91.3828H266.613ZM267.613 95.5H256.988V97.5H267.613V95.5ZM255.988 96.5V102.34H257.988V96.5H255.988ZM256.988 103.34H266.363V101.34H256.988V103.34ZM265.363 102.34V107.34H267.363V102.34H265.363ZM266.363 106.34H256.988V108.34H266.363V106.34ZM255.988 107.34V113.375H257.988V107.34H255.988ZM256.988 114.375H267.613V112.375H256.988V114.375ZM266.613 113.375V119H268.613V113.375H266.613ZM267.613 118H248.238V120H267.613V118ZM249.238 119V91.3828H247.238V119H249.238ZM274.02 91.3828V90.3828H273.02V91.3828H274.02ZM293.395 91.3828H294.395V90.3828H293.395V91.3828ZM293.395 96.5V97.5H294.395V96.5H293.395ZM282.77 96.5V95.5H281.77V96.5H282.77ZM282.77 102.34H281.77V103.34H282.77V102.34ZM292.145 102.34H293.145V101.34H292.145V102.34ZM292.145 107.34V108.34H293.145V107.34H292.145ZM282.77 107.34V106.34H281.77V107.34H282.77ZM282.77 113.375H281.77V114.375H282.77V113.375ZM293.395 113.375H294.395V112.375H293.395V113.375ZM293.395 119V120H294.395V119H293.395ZM274.02 119H273.02V120H274.02V119ZM274.02 92.3828H293.395V90.3828H274.02V92.3828ZM292.395 91.3828V96.5H294.395V91.3828H292.395ZM293.395 95.5H282.77V97.5H293.395V95.5ZM281.77 96.5V102.34H283.77V96.5H281.77ZM282.77 103.34H292.145V101.34H282.77V103.34ZM291.145 102.34V107.34H293.145V102.34H291.145ZM292.145 106.34H282.77V108.34H292.145V106.34ZM281.77 107.34V113.375H283.77V107.34H281.77ZM282.77 114.375H293.395V112.375H282.77V114.375ZM292.395 113.375V119H294.395V113.375H292.395ZM293.395 118H274.02V120H293.395V118ZM275.02 119V91.3828H273.02V119H275.02Z"/></g><defs><filter id="filter0_d_0_1" width="435.581" height="83.168" x=".016" y=".792" color-interpolation-filters="sRGB" filterUnits="userSpaceOnUse"><feFlood flood-opacity="0" result="BackgroundImageFix"/><feColorMatrix in="SourceAlpha" result="hardAlpha" type="matrix" values="0 0 0 0 0 0 0 0 0 0 0 0 0 0 0 0 0 0 127 0"/><feOffset dy="4"/><feGaussianBlur stdDeviation="2"/><feComposite in2="hardAlpha" operator="out"/><feColorMatrix type="matrix" values="0 0 0 0 0 0 0 0 0 0 0 0 0 0 0 0 0 0 0.25 0"/><feBlend in2="BackgroundImageFix" mode="normal" result="effect1_dropShadow_0_1"/><feBlend in="SourceGraphic" in2="effect1_dropShadow_0_1" mode="normal" result="shape"/></filter><filter id="filter1_d_0_1" width="160.598" height="36.711" x="136.797" y="90.856" color-interpolation-filters="sRGB" filterUnits="userSpaceOnUse"><feFlood flood-opacity="0" result="BackgroundImageFix"/><feColorMatrix in="SourceAlpha" result="hardAlpha" type="matrix" values="0 0 0 0 0 0 0 0 0 0 0 0 0 0 0 0 0 0 127 0"/><feOffset dy="4"/><feGaussianBlur stdDeviation="2"/><feComposite in2="hardAlpha" operator="out"/><feColorMatrix type="matrix" values="0 0 0 0 0 0 0 0 0 0 0 0 0 0 0 0 0 0 0.25 0"/><feBlend in2="BackgroundImageFix" mode="normal" result="effect1_dropShadow_0_1"/><feBlend in="SourceGraphic" in2="effect1_dropShadow_0_1" mode="normal" result="shape"/></filter></defs></svg>