<svg xmlns="http://www.w3.org/2000/svg" width="388" height="274" fill="none" viewBox="0 0 388 274"><path fill="#F9BB32" d="M339.276 68.8328C343.88 81.0918 337.664 101.901 318.856 118.004C307.162 128.016 293.253 133.759 280.699 133.759C280.698 133.759 280.699 133.759 280.697 133.759C275.094 133.759 267.401 132.574 262.572 126.934C253.398 116.22 258.327 91.3098 280.066 72.6968C281.669 71.3238 283.317 70.0398 284.994 68.8318H247.028C228.401 94.2858 225.494 125.15 242.058 144.498C262.47 168.339 304.718 165.662 336.421 138.518C359.526 118.736 370.637 91.4228 367.071 68.8318H339.276V68.8328Z"/><path fill="#FFEACF" d="M366.864 55.2038C346.452 31.3628 304.204 34.0398 272.501 61.1838C240.798 88.3278 231.644 129.659 252.056 153.499C272.468 177.339 314.716 174.663 346.419 147.519C378.123 120.375 387.276 79.0438 366.864 55.2038ZM328.856 127.005C317.162 137.017 303.253 142.76 290.699 142.76C290.698 142.76 290.699 142.76 290.697 142.76C285.094 142.76 277.401 141.575 272.572 135.935C263.398 125.221 268.327 100.311 290.066 81.6978C301.76 71.6848 315.67 65.9428 328.227 65.9428C333.83 65.9428 341.521 67.1268 346.351 72.7678C355.524 83.4818 350.595 108.392 328.856 127.005Z"/><path fill="#FFD59A" d="M272.502 61.184C240.799 88.328 231.645 129.659 252.057 153.499C268.827 173.086 300.333 174.759 328.624 159.685L337.397 118.398C334.909 121.36 332.071 124.252 328.856 127.005C317.162 137.017 303.253 142.76 290.699 142.76C290.698 142.76 290.699 142.76 290.697 142.76C285.094 142.76 277.401 141.575 272.572 135.935C263.398 125.221 268.327 100.311 290.066 81.698C301.76 71.685 315.67 65.943 328.227 65.943C333.83 65.943 341.521 67.127 346.351 72.768C346.556 73.007 346.745 73.262 346.936 73.515L353.104 44.488C330.794 33.265 298.188 39.191 272.502 61.184Z"/><path fill="#FFEACF" d="M246.746 217.379H141.254C123.984 217.379 109.068 205.299 105.479 188.407L68.1569 12.7639C66.7759 6.26385 71.7329 0.141846 78.3789 0.141846H309.623C316.268 0.141846 321.226 6.26286 319.845 12.7639L282.523 188.407C278.932 205.299 264.016 217.379 246.746 217.379Z"/><path fill="#FFD59A" d="M145.479 188.406L108.157 12.7619C106.776 6.26189 111.733 0.139893 118.379 0.139893H78.3789C71.7339 0.139893 66.7759 6.26189 68.1569 12.7619L105.479 188.406C109.068 205.299 123.985 217.378 141.254 217.378H181.254C163.984 217.378 149.068 205.299 145.479 188.406Z"/><path fill="#FFD59A" d="M331.359 273.859H56.6411C48.3571 273.859 41.6411 267.143 41.6411 258.859V236.24H346.359V258.859C346.359 267.143 339.643 273.859 331.359 273.859Z"/><path fill="#FFC34C" d="M81.6411 259.24H346.34C346.343 259.112 346.359 258.988 346.359 258.859V236.24H41.6411V258.859C41.6411 267.143 48.3571 273.859 56.6411 273.859H81.6411V259.24Z"/><path fill="#FFD59A" d="M357.42 249.824H27.71C22.031 249.824 16.708 246.836 13.447 241.817L1.64796 223.662C-0.152037 220.892 1.68297 217.081 4.81797 217.081H383.184C386.502 217.081 388.283 221.292 386.11 223.998L370.588 243.333C367.277 247.456 362.473 249.824 357.42 249.824Z"/><path fill="#A56021" d="M93.2158 58.531L120.15 185.288C122.254 195.191 131.129 202.379 141.253 202.379H246.745C256.869 202.379 265.744 195.191 267.848 185.288L294.782 58.531H93.2158Z"/><path fill="#DB9C2E" d="M296.595 15.1418H91.4051C87.5891 15.1418 84.7431 18.6569 85.5361 22.3889L93.2161 58.5318H294.783L302.463 22.3889C303.257 18.6559 300.41 15.1418 296.595 15.1418Z"/><path fill="#BF6C0D" d="M117.882 58.5309L108.662 15.1409H91.4061C87.5901 15.1409 84.7441 18.6559 85.5371 22.3879L93.2171 58.5309H117.882Z"/><path fill="#FFD59A" d="M272.679 89.5739C272.266 89.5739 271.846 89.5309 271.426 89.4419C268.185 88.7529 266.115 85.5669 266.804 82.3259L269.914 67.6889C270.603 64.4479 273.788 62.3769 277.03 63.0669C280.271 63.7559 282.341 66.9419 281.652 70.1829L278.542 84.8199C277.942 87.6399 275.452 89.5739 272.679 89.5739Z"/><path fill="#FFD59A" d="M255.156 182.039C254.743 182.039 254.323 181.996 253.903 181.906C250.662 181.217 248.592 178.031 249.282 174.79L263.585 107.513C264.274 104.272 267.458 102.199 270.701 102.892C273.942 103.581 276.012 106.767 275.322 110.008L261.019 177.285C260.419 180.105 257.928 182.039 255.156 182.039Z"/><path fill="#8C4C17" d="M160 157.943C168.284 157.943 175 151.227 175 142.943C175 134.659 168.284 127.943 160 127.943C151.716 127.943 145 134.659 145 142.943C145 151.227 151.716 157.943 160 157.943Z"/><path fill="#8C4C17" d="M190 191.853C198.284 191.853 205 185.137 205 176.853C205 168.569 198.284 161.853 190 161.853C181.716 161.853 175 168.569 175 176.853C175 185.137 181.716 191.853 190 191.853Z"/><path fill="#8C4C17" d="M145.479 188.406L117.882 58.531H93.2168L120.151 185.288C122.255 195.191 131.13 202.379 141.254 202.379H151.723C148.75 198.313 146.58 193.587 145.479 188.406Z"/></svg>